<svg width="189" height="74" viewBox="0 0 189 74" fill="none" xmlns="http://www.w3.org/2000/svg">
<path d="M4.5 60.874C5.028 60.874 5.514 61.006 5.958 61.27C6.402 61.534 6.756 61.888 7.02 62.332C7.284 62.776 7.416 63.262 7.416 63.79C7.416 64.318 7.284 64.804 7.02 65.248C6.756 65.692 6.402 66.046 5.958 66.31C5.514 66.574 5.028 66.706 4.5 66.706C3.972 66.706 3.486 66.574 3.042 66.31C2.598 66.046 2.244 65.692 1.98 65.248C1.716 64.804 1.584 64.318 1.584 63.79C1.584 63.262 1.716 62.776 1.98 62.332C2.244 61.888 2.598 61.534 3.042 61.27C3.486 61.006 3.972 60.874 4.5 60.874ZM21.33 70L20.808 68.254H16.47L15.948 70H11.88L16.398 57.616H21.024L25.542 70H21.33ZM17.298 65.482H19.98L18.684 61.072H18.612L17.298 65.482ZM46.6799 57.616C47.3039 57.616 47.8739 57.748 48.3899 58.012C48.9179 58.264 49.3319 58.624 49.6319 59.092C49.9439 59.56 50.0999 60.082 50.0999 60.658C50.0999 62.182 49.4099 63.142 48.0299 63.538V63.61C49.6019 63.97 50.3879 65.002 50.3879 66.706C50.3879 67.354 50.2259 67.93 49.9019 68.434C49.5899 68.926 49.1579 69.31 48.6059 69.586C48.0539 69.862 47.4479 70 46.7879 70H38.4359V57.616H46.6799ZM42.4139 62.44H45.1499C45.4139 62.44 45.6299 62.35 45.7979 62.17C45.9779 61.978 46.0679 61.744 46.0679 61.468V61.288C46.0679 61.024 45.9779 60.802 45.7979 60.622C45.6179 60.43 45.4019 60.334 45.1499 60.334H42.4139V62.44ZM42.4139 67.12H45.4379C45.7019 67.12 45.9179 67.03 46.0859 66.85C46.2659 66.658 46.3559 66.424 46.3559 66.148V65.968C46.3559 65.692 46.2659 65.464 46.0859 65.284C45.9179 65.092 45.7019 64.996 45.4379 64.996H42.4139V67.12ZM63.1448 70L62.6228 68.254H58.2848L57.7628 70H53.6948L58.2128 57.616H62.8388L67.3568 70H63.1448ZM59.1128 65.482H61.7948L60.4988 61.072H60.4268L59.1128 65.482ZM83.3106 61.414C83.3106 62.17 83.1066 62.854 82.6986 63.466C82.2906 64.078 81.6966 64.528 80.9166 64.816L83.6706 70H79.2066L77.0106 65.482H75.5346V70H71.5566V57.616H79.1346C80.0226 57.616 80.7786 57.79 81.4026 58.138C82.0386 58.474 82.5126 58.936 82.8246 59.524C83.1486 60.1 83.3106 60.73 83.3106 61.414ZM79.2606 61.576C79.2606 61.252 79.1526 60.982 78.9366 60.766C78.7206 60.55 78.4566 60.442 78.1446 60.442H75.5346V62.728H78.1446C78.4566 62.728 78.7206 62.62 78.9366 62.404C79.1526 62.176 79.2606 61.9 79.2606 61.576ZM96.5104 57.616C97.1344 57.616 97.7044 57.748 98.2204 58.012C98.7484 58.264 99.1624 58.624 99.4624 59.092C99.7744 59.56 99.9304 60.082 99.9304 60.658C99.9304 62.182 99.2404 63.142 97.8604 63.538V63.61C99.4324 63.97 100.218 65.002 100.218 66.706C100.218 67.354 100.056 67.93 99.7324 68.434C99.4204 68.926 98.9884 69.31 98.4364 69.586C97.8844 69.862 97.2784 70 96.6184 70H88.2664V57.616H96.5104ZM92.2444 62.44H94.9804C95.2444 62.44 95.4604 62.35 95.6284 62.17C95.8084 61.978 95.8984 61.744 95.8984 61.468V61.288C95.8984 61.024 95.8084 60.802 95.6284 60.622C95.4484 60.43 95.2324 60.334 94.9804 60.334H92.2444V62.44ZM92.2444 67.12H95.2684C95.5324 67.12 95.7484 67.03 95.9164 66.85C96.0964 66.658 96.1864 66.424 96.1864 66.148V65.968C96.1864 65.692 96.0964 65.464 95.9164 65.284C95.7484 65.092 95.5324 64.996 95.2684 64.996H92.2444V67.12ZM104.976 57.616H115.686V60.586H108.954V62.296H114.714V65.14H108.954V67.03H115.812V70H104.976V57.616ZM128.964 70L128.442 68.254H124.104L123.582 70H119.514L124.032 57.616H128.658L133.176 70H128.964ZM124.932 65.482H127.614L126.318 61.072H126.246L124.932 65.482ZM149.13 61.414C149.13 62.17 148.926 62.854 148.518 63.466C148.11 64.078 147.516 64.528 146.736 64.816L149.49 70H145.026L142.83 65.482H141.354V70H137.376V57.616H144.954C145.842 57.616 146.598 57.79 147.222 58.138C147.858 58.474 148.332 58.936 148.644 59.524C148.968 60.1 149.13 60.73 149.13 61.414ZM145.08 61.576C145.08 61.252 144.972 60.982 144.756 60.766C144.54 60.55 144.276 60.442 143.964 60.442H141.354V62.728H143.964C144.276 62.728 144.54 62.62 144.756 62.404C144.972 62.176 145.08 61.9 145.08 61.576ZM154.266 70V57.616H158.244V70H154.266ZM172.08 70L171.558 68.254H167.22L166.698 70H162.63L167.148 57.616H171.774L176.292 70H172.08ZM168.048 65.482H170.73L169.434 61.072H169.362L168.048 65.482ZM183.66 60.874C184.188 60.874 184.674 61.006 185.118 61.27C185.562 61.534 185.916 61.888 186.18 62.332C186.444 62.776 186.576 63.262 186.576 63.79C186.576 64.318 186.444 64.804 186.18 65.248C185.916 65.692 185.562 66.046 185.118 66.31C184.674 66.574 184.188 66.706 183.66 66.706C183.132 66.706 182.646 66.574 182.202 66.31C181.758 66.046 181.404 65.692 181.14 65.248C180.876 64.804 180.744 64.318 180.744 63.79C180.744 63.262 180.876 62.776 181.14 62.332C181.404 61.888 181.758 61.534 182.202 61.27C182.646 61.006 183.132 60.874 183.66 60.874Z" fill="#F2F2F2"/>
<path d="M126.265 47.3267C124.513 47.3267 123.075 45.9324 122.957 44.1739C124.97 43.2075 126.368 41.1176 126.368 38.6998C126.368 35.3661 123.711 32.6539 120.446 32.6539C118.916 32.6539 117.519 33.2493 116.467 34.225L111.88 26.1145C112.129 25.8082 112.523 25.3483 112.997 24.8882C113.986 23.9297 114.905 23.3807 115.585 23.3421C115.81 23.3294 116.015 23.2078 116.137 23.0152C117.438 20.9633 126.134 2.1804 126.503 1.38174C126.663 1.0361 126.53 0.623178 126.2 0.442158C125.87 0.261378 125.46 0.375593 125.265 0.702434L111.031 24.6646L96.7973 0.702314C96.6031 0.375593 96.1924 0.261138 95.8623 0.442039C95.5324 0.623058 95.3993 1.03598 95.5593 1.38162C95.9287 2.18028 104.625 20.9633 105.925 23.015C106.047 23.2077 106.253 23.3293 106.477 23.342C107.157 23.3806 108.077 23.9296 109.065 24.8881C109.54 25.3482 109.934 25.808 110.182 26.1144L105.595 34.2249C104.543 33.2493 103.147 32.6538 101.617 32.6538C98.3511 32.6538 95.6943 35.3659 95.6943 38.6997C95.6943 42.0335 98.3511 44.7457 101.617 44.7457C104.883 44.7457 107.539 42.0335 107.539 38.6997C107.539 37.4757 107.18 36.3363 106.565 35.3833L111.031 27.4867L115.498 35.3833C114.883 36.3363 114.523 37.4758 114.523 38.6997C114.523 42.0335 117.18 44.7457 120.446 44.7457C120.837 44.7457 121.22 44.7057 121.59 44.6315C121.919 46.9645 123.89 48.7632 126.265 48.7632C126.654 48.7632 126.969 48.4415 126.969 48.0449C126.969 47.6482 126.653 47.3267 126.265 47.3267ZM119.108 13.8393C117.316 17.6086 115.754 20.8241 115.12 21.9561C114.764 22.024 114.411 22.154 114.066 22.3262L119.108 13.8393ZM106.943 21.9561C106.308 20.8241 104.746 17.6086 102.955 13.8393L107.996 22.3262C107.652 22.154 107.299 22.024 106.943 21.9561ZM101.617 43.3092C99.127 43.3092 97.1015 41.2414 97.1015 38.6998C97.1015 36.1583 99.127 34.0905 101.617 34.0905C104.106 34.0905 106.132 36.1583 106.132 38.6998C106.132 41.2414 104.106 43.3092 101.617 43.3092ZM115.93 38.6998C115.93 36.1583 117.956 34.0905 120.446 34.0905C122.935 34.0905 124.961 36.1583 124.961 38.6998C124.961 41.2414 122.935 43.3092 120.446 43.3092C117.956 43.3092 115.93 41.2414 115.93 38.6998Z" fill="#F2F2F2"/>
<path d="M91.6402 1.67348C92.0287 1.67348 92.3439 1.35179 92.3439 0.955149C92.3439 0.55851 92.0287 0.236816 91.6402 0.236816H82.3104C80.485 0.236816 79 1.75274 79 3.61609V41.8501C79 43.7133 80.485 45.2294 82.3104 45.2294H91.6403C92.0289 45.2294 92.344 44.9077 92.344 44.511C92.344 44.1144 92.0289 43.7927 91.6403 43.7927H83.0141V42.4423H91.6403C92.0289 42.4423 92.344 42.1207 92.344 41.724C92.344 41.3274 92.0289 41.0057 91.6403 41.0057H83.0141V39.5208H91.6403C92.0289 39.5208 92.344 39.1991 92.344 38.8024C92.344 38.4058 92.0289 38.0841 91.6403 38.0841H83.0141V36.5991H91.6403C92.0289 36.5991 92.344 36.2774 92.344 35.8807C92.344 35.4841 92.0289 35.1624 91.6403 35.1624H83.0141V33.6775H91.6403C92.0289 33.6775 92.344 33.3558 92.344 32.9592C92.344 32.5625 92.0289 32.2408 91.6403 32.2408H83.0141V30.7559H91.6403C92.0289 30.7559 92.344 30.4342 92.344 30.0376C92.344 29.6409 92.0289 29.3192 91.6403 29.3192H83.0141V27.8342H91.6403C92.0289 27.8342 92.344 27.5125 92.344 27.1159C92.344 26.7192 92.0289 26.3975 91.6403 26.3975H83.0141V24.9126H91.6403C92.0289 24.9126 92.344 24.5909 92.344 24.1943C92.344 23.7977 92.0289 23.476 91.6403 23.476H83.0141V21.9906H91.6403C92.0289 21.9906 92.344 21.6689 92.344 21.2722C92.344 20.8756 92.0289 20.5539 91.6403 20.5539H83.0141V19.069H91.6403C92.0289 19.069 92.344 18.7473 92.344 18.3507C92.344 17.954 92.0289 17.6323 91.6403 17.6323H83.0141V16.1473H91.6403C92.0289 16.1473 92.344 15.8256 92.344 15.429C92.344 15.0323 92.0289 14.7106 91.6403 14.7106H83.0141V13.2257H91.6403C92.0289 13.2257 92.344 12.904 92.344 12.5074C92.344 12.1107 92.0289 11.789 91.6403 11.789H83.0141V10.3038H91.6403C92.0289 10.3038 92.344 9.98208 92.344 9.58544C92.344 9.1888 92.0289 8.86711 91.6403 8.86711H83.0141V7.38219H91.6403C92.0289 7.38219 92.344 7.0605 92.344 6.66386C92.344 6.26722 92.0289 5.94553 91.6403 5.94553H83.0141V4.46049H91.6403C92.0289 4.46049 92.344 4.1388 92.344 3.74216C92.344 3.34552 92.0289 3.02383 91.6403 3.02383H83.0141V1.67348H91.6402ZM80.4073 41.8501V3.61609C80.4073 2.79875 80.905 2.09909 81.6068 1.81272V43.6533C80.905 43.367 80.4073 42.6673 80.4073 41.8501Z" fill="#F2F2F2"/>
</svg>
