<svg width="20" height="12" viewBox="0 0 20 12" fill="none" xmlns="http://www.w3.org/2000/svg">
<path d="M0.593531 11.7316C0.593531 11.0637 1.1696 10.5154 1.89614 10.4704C2.29542 11.2381 3.15888 11.771 4.15783 11.771C5.53523 11.771 6.65581 10.7582 6.65581 9.51318C6.65581 8.92989 6.40982 8.39757 6.00668 7.99647L9.35764 6.24777C9.48422 6.34246 9.67421 6.49274 9.86431 6.67363C10.2603 7.05058 10.4872 7.40102 10.5031 7.66034C10.5083 7.74592 10.5586 7.82411 10.6382 7.87066C11.486 8.36649 19.2464 11.6816 19.5764 11.8225C19.7192 11.8835 19.8898 11.8327 19.9646 11.707C20.0393 11.5812 19.9921 11.4247 19.857 11.3505L9.95671 5.92416L19.8571 0.497727C19.9921 0.423687 20.0394 0.267112 19.9646 0.141297C19.8898 0.0155276 19.7192 -0.0352184 19.5764 0.0257662C19.2464 0.166603 11.486 3.48177 10.6382 3.97761C10.5586 4.02415 10.5084 4.10235 10.5031 4.18793C10.4872 4.44729 10.2604 4.79773 9.86436 5.17464C9.67426 5.35553 9.48427 5.5058 9.35769 5.6005L6.00673 3.85179C6.40982 3.4507 6.65586 2.91838 6.65586 2.33509C6.65586 1.09009 5.53528 0.0772277 4.15788 0.0772277C2.78048 0.0772277 1.6599 1.09009 1.6599 2.33509C1.6599 3.58009 2.78048 4.59296 4.15788 4.59296C4.66361 4.59296 5.13437 4.45601 5.52811 4.22159L8.79072 5.9242L5.52811 7.62681C5.13437 7.39239 4.66356 7.25545 4.15788 7.25545C2.78048 7.25545 1.6599 8.26831 1.6599 9.51331C1.6599 9.66251 1.67642 9.80826 1.70709 9.94946C0.743162 10.075 -4.01091e-07 10.8263 -4.01091e-07 11.7317C-4.01091e-07 11.8799 0.132912 12 0.296789 12C0.460667 12 0.593531 11.8798 0.593531 11.7316ZM14.4293 9.00308C12.872 8.32013 11.5434 7.72477 11.0758 7.48271C11.0477 7.34719 10.994 7.21244 10.9229 7.08121L14.4293 9.00308ZM11.0758 4.36556C11.5434 4.1235 12.872 3.52818 14.4293 2.84519L10.9229 4.76706C10.994 4.63583 11.0477 4.50112 11.0758 4.36556ZM2.25343 2.33505C2.25343 1.38589 3.10774 0.613705 4.15783 0.613705C5.20792 0.613705 6.06223 1.38589 6.06223 2.33505C6.06223 3.2842 5.20792 4.05639 4.15783 4.05639C3.10774 4.05639 2.25343 3.2842 2.25343 2.33505ZM4.15783 7.79188C5.20792 7.79188 6.06223 8.56407 6.06223 9.51322C6.06223 10.4624 5.20792 11.2346 4.15783 11.2346C3.10774 11.2346 2.25343 10.4624 2.25343 9.51322C2.25343 8.56407 3.10774 7.79188 4.15783 7.79188Z" fill="#241D1A"/>
</svg>
